<svg xmlns="http://www.w3.org/2000/svg" viewBox="0 0 180 180" width="180" height="180">
  <rect width="180" height="180" rx="40" fill="#E8611A"></rect>
  <g transform="translate(90,90) rotate(90)">
    <polygon points="0,-30 26,-15 26,15 0,30 -26,15 -26,-15" fill="white" stroke="#E8611A" stroke-width="1.8"></polygon>
    <polygon points="52,-30 78,-15 78,15 52,30 26,15 26,-15" fill="white" stroke="#E8611A" stroke-width="1.8"></polygon>
    <polygon points="26,-75 52,-60 52,-30 26,-15 0,-30 0,-60" fill="white" stroke="#E8611A" stroke-width="1.8"></polygon>
    <polygon points="-26,-75 0,-60 0,-30 -26,-15 -52,-30 -52,-60" fill="white" stroke="#E8611A" stroke-width="1.8"></polygon>
    <polygon points="-52,-30 -26,-15 -26,15 -52,30 -78,15 -78,-15" fill="white" stroke="#E8611A" stroke-width="1.8"></polygon>
    <polygon points="-26,15 0,30 0,60 -26,75 -52,60 -52,30" fill="white" stroke="#E8611A" stroke-width="1.8"></polygon>
    <polygon points="26,15 52,30 52,60 26,75 0,60 0,30" fill="white" stroke="#E8611A" stroke-width="1.8"></polygon>
  </g>
</svg>