<svg xmlns="http://www.w3.org/2000/svg" viewBox="0 0 32 32" width="32" height="32">
  <rect width="32" height="32" fill="#111111"></rect>
  <g transform="translate(16,16) rotate(90)">
    <polygon points="0,-5.5 4.76,-2.75 4.76,2.75 0,5.5 -4.76,2.75 -4.76,-2.75" fill="#E8611A" stroke="#111" stroke-width="0.6"></polygon>
    <polygon points="9.5,-5.5 14.3,-2.75 14.3,2.75 9.5,5.5 4.76,2.75 4.76,-2.75" fill="#E8611A" stroke="#111" stroke-width="0.6"></polygon>
    <polygon points="4.76,-13.75 9.5,-11 9.5,-5.5 4.76,-2.75 0,-5.5 0,-11" fill="#E8611A" stroke="#111" stroke-width="0.6"></polygon>
    <polygon points="-4.76,-13.75 0,-11 0,-5.5 -4.76,-2.75 -9.5,-5.5 -9.5,-11" fill="#E8611A" stroke="#111" stroke-width="0.6"></polygon>
    <polygon points="-9.5,-5.5 -4.76,-2.75 -4.76,2.75 -9.5,5.5 -14.3,2.75 -14.3,-2.75" fill="#E8611A" stroke="#111" stroke-width="0.6"></polygon>
    <polygon points="-4.76,2.75 0,5.5 0,11 -4.76,13.75 -9.5,11 -9.5,5.5" fill="#E8611A" stroke="#111" stroke-width="0.6"></polygon>
    <polygon points="4.76,2.75 9.5,5.5 9.5,11 4.76,13.75 0,11 0,5.5" fill="#E8611A" stroke="#111" stroke-width="0.6"></polygon>
  </g>
</svg>