<svg xmlns="http://www.w3.org/2000/svg" viewBox="0 0 720 120" width="720" height="120">
  <g transform="translate(60,60) rotate(90)">
    <polygon points="0,-19 16.45,-9.5 16.45,9.5 0,19 -16.45,9.5 -16.45,-9.5" fill="white" stroke="#E8611A" stroke-width="3" stroke-linejoin="round"></polygon>
    <polygon points="32.9,-19 49.35,-9.5 49.35,9.5 32.9,19 16.45,9.5 16.45,-9.5" fill="white" stroke="#E8611A" stroke-width="3" stroke-linejoin="round"></polygon>
    <polygon points="16.45,-47.5 32.9,-38 32.9,-19 16.45,-9.5 0,-19 0,-38" fill="white" stroke="#E8611A" stroke-width="3" stroke-linejoin="round"></polygon>
    <polygon points="-16.45,-47.5 0,-38 0,-19 -16.45,-9.5 -32.9,-19 -32.9,-38" fill="white" stroke="#E8611A" stroke-width="3" stroke-linejoin="round"></polygon>
    <polygon points="-32.9,-19 -16.45,-9.5 -16.45,9.5 -32.9,19 -49.35,9.5 -49.35,-9.5" fill="white" stroke="#E8611A" stroke-width="3" stroke-linejoin="round"></polygon>
    <polygon points="-16.45,9.5 0,19 0,38 -16.45,47.5 -32.9,38 -32.9,19" fill="white" stroke="#E8611A" stroke-width="3" stroke-linejoin="round"></polygon>
    <polygon points="16.45,9.5 32.9,19 32.9,38 16.45,47.5 0,38 0,19" fill="white" stroke="#E8611A" stroke-width="3" stroke-linejoin="round"></polygon>
  </g>
  <text x="130" y="75" font-family="Arial Black,Helvetica,sans-serif" font-weight="900" font-size="42" fill="white" letter-spacing="2">HONEYVECTORS</text>
</svg>