<svg xmlns="http://www.w3.org/2000/svg" viewBox="0 0 520 120" width="520" height="120">
  <rect width="520" height="120" fill="#ffffff"></rect>
  <g transform="translate(60,60) rotate(90)">
    <polygon points="0,-19 16.45,-9.5 16.45,9.5 0,19 -16.45,9.5 -16.45,-9.5" fill="#E8611A" stroke="#fff" stroke-width="1.2"></polygon>
    <polygon points="32.9,-19 49.35,-9.5 49.35,9.5 32.9,19 16.45,9.5 16.45,-9.5" fill="#E8611A" stroke="#fff" stroke-width="1.2"></polygon>
    <polygon points="16.45,-47.5 32.9,-38 32.9,-19 16.45,-9.5 0,-19 0,-38" fill="#E8611A" stroke="#fff" stroke-width="1.2"></polygon>
    <polygon points="-16.45,-47.5 0,-38 0,-19 -16.45,-9.5 -32.9,-19 -32.9,-38" fill="#E8611A" stroke="#fff" stroke-width="1.2"></polygon>
    <polygon points="-32.9,-19 -16.45,-9.5 -16.45,9.5 -32.9,19 -49.35,9.5 -49.35,-9.5" fill="#E8611A" stroke="#fff" stroke-width="1.2"></polygon>
    <polygon points="-16.45,9.5 0,19 0,38 -16.45,47.5 -32.9,38 -32.9,19" fill="#E8611A" stroke="#fff" stroke-width="1.2"></polygon>
    <polygon points="16.45,9.5 32.9,19 32.9,38 16.45,47.5 0,38 0,19" fill="#E8611A" stroke="#fff" stroke-width="1.2"></polygon>
  </g>
  <text x="130" y="52" font-family="Arial Black,Helvetica,sans-serif" font-weight="900" font-size="38" fill="#111111" letter-spacing="1">HONEY</text>
  <text x="130" y="96" font-family="Arial Black,Helvetica,sans-serif" font-weight="900" font-size="38" fill="#E8611A" letter-spacing="1">VECTORS</text>
</svg>